# xmcd
#
# Track frame offsets: 
#        150
#        20367
#        33375
#        54527
#        76982
#        92298
#        108791
#        128881
#        148430
#        167307
#        192144
#        207757
#        227087
#        245024
#        259027
#        276682
#
# Disc length: 4044 seconds
#
# Revision: 2
# Processed by: cddbd v1.5.1PL0 Copyright (c) Steve Scherf et al.
# Submitted via: ExactAudioCopy v0.95a5
#
DISCID=d80fca10
DTITLE=Various Artist - Τα Blues Του Party CD2
DYEAR=2004
DGENRE=Blues
TTITLE0=Bonnie Tyler - Total Eclipse Of The Heart
TTITLE1=Peter Sledge - When A Man Loves A Woman
TTITLE2=Leonard Cohen - Dance Me To The End Of Time
TTITLE3=Sam Brown - Stop!
TTITLE4=Harry Nilson - Whithout You
TTITLE5=The Righteous Brothers - Unchained Melody
TTITLE6=Whitney Houston - I Will Always Love You
TTITLE7=Chris De Burgh - The Lady In Red
TTITLE8=Lionel Richie - Hello
TTITLE9=Roxette - Listen To Your Heart
TTITLE10=Phil Collins - Aginst All Odds
TTITLE11=Berlin - Take My Breath Away
TTITLE12=Bangles - Eternal Flame
TTITLE13=Johnny Logan - Hold Me Now
TTITLE14=Kenny Rogers - Lady
TTITLE15=Jennifer Rush - Power Of Love
EXTD=submit by Theodore Mavrogiorgis
EXTT0=
EXTT1=
EXTT2=
EXTT3=
EXTT4=
EXTT5=
EXTT6=
EXTT7=
EXTT8=
EXTT9=
EXTT10=
EXTT11=
EXTT12=
EXTT13=
EXTT14=
EXTT15=
PLAYORDER=
